# This file uses centimeters as units for non-parametric coordinates.

v 0.085167 -0.296023 -0.044699
v 0.054639 -0.296023 -0.079158
v 0.011594 -0.296023 -0.095482
v -0.034107 -0.296023 -0.089933
v -0.071995 -0.296023 -0.063782
v -0.093389 -0.296023 -0.023018
v -0.093389 -0.296023 0.023018
v -0.071995 -0.296023 0.063782
v -0.034107 -0.296023 0.089933
v 0.011594 -0.296023 0.095482
v 0.054639 -0.296023 0.079158
v 0.085167 -0.296023 0.044699
v 0.096184 -0.296023 0.000000
v 0.161996 -0.251812 -0.085022
v 0.103929 -0.251812 -0.150567
v 0.022053 -0.251812 -0.181618
v -0.064876 -0.251812 -0.171063
v -0.136942 -0.251812 -0.121320
v -0.177636 -0.251812 -0.043783
v -0.177636 -0.251812 0.043783
v -0.136942 -0.251812 0.121320
v -0.064876 -0.251812 0.171063
v 0.022052 -0.251812 0.181618
v 0.103929 -0.251812 0.150567
v 0.161996 -0.251812 0.085022
v 0.182952 -0.251812 0.000000
v 0.222969 -0.182952 -0.117023
v 0.143046 -0.182952 -0.207238
v 0.030353 -0.182952 -0.249976
v -0.089294 -0.182952 -0.235449
v -0.188484 -0.182952 -0.166983
v -0.244495 -0.182952 -0.060263
v -0.244495 -0.182952 0.060263
v -0.188484 -0.182952 0.166982
v -0.089294 -0.182952 0.235449
v 0.030353 -0.182952 0.249976
v 0.143046 -0.182952 0.207238
v 0.222969 -0.182952 0.117023
v 0.251812 -0.182952 0.000000
v 0.262116 -0.096184 -0.137569
v 0.168160 -0.096184 -0.243622
v 0.035682 -0.096184 -0.293865
v -0.104971 -0.096184 -0.276787
v -0.221577 -0.096184 -0.196300
v -0.287421 -0.096184 -0.070843
v -0.287421 -0.096184 0.070843
v -0.221577 -0.096184 0.196300
v -0.104971 -0.096184 0.276787
v 0.035682 -0.096184 0.293865
v 0.168160 -0.096184 0.243622
v 0.262116 -0.096184 0.137569
v 0.296023 -0.096184 0.000000
v 0.275605 0.000000 -0.144648
v 0.176814 0.000000 -0.256160
v 0.037518 0.000000 -0.308988
v -0.110373 0.000000 -0.291031
v -0.232979 0.000000 -0.206402
v -0.302213 0.000000 -0.074489
v -0.302213 0.000000 0.074489
v -0.232979 0.000000 0.206402
v -0.110373 0.000000 0.291031
v 0.037518 0.000000 0.308988
v 0.176814 0.000000 0.256160
v 0.275605 0.000000 0.144648
v 0.311257 0.000000 0.000000
v 0.262116 0.096184 -0.137569
v 0.168160 0.096184 -0.243622
v 0.035682 0.096184 -0.293865
v -0.104971 0.096184 -0.276787
v -0.221577 0.096184 -0.196300
v -0.287421 0.096184 -0.070843
v -0.287421 0.096184 0.070843
v -0.221577 0.096184 0.196300
v -0.104971 0.096184 0.276787
v 0.035682 0.096184 0.293865
v 0.168160 0.096184 0.243622
v 0.262116 0.096184 0.137569
v 0.296023 0.096184 0.000000
v 0.222969 0.182952 -0.117023
v 0.143046 0.182952 -0.207238
v 0.030353 0.182952 -0.249976
v -0.089294 0.182952 -0.235449
v -0.188484 0.182952 -0.166983
v -0.244495 0.182952 -0.060263
v -0.244495 0.182952 0.060263
v -0.188484 0.182952 0.166982
v -0.089294 0.182952 0.235449
v 0.030353 0.182952 0.249976
v 0.143046 0.182952 0.207238
v 0.222969 0.182952 0.117023
v 0.251812 0.182952 0.000000
v 0.161996 0.251812 -0.085022
v 0.103929 0.251812 -0.150567
v 0.022053 0.251812 -0.181618
v -0.064876 0.251812 -0.171063
v -0.136942 0.251812 -0.121320
v -0.177636 0.251812 -0.043783
v -0.177636 0.251812 0.043783
v -0.136942 0.251812 0.121320
v -0.064876 0.251812 0.171063
v 0.022052 0.251812 0.181618
v 0.103929 0.251812 0.150567
v 0.161996 0.251812 0.085022
v 0.182952 0.251812 0.000000
v 0.085167 0.296023 -0.044699
v 0.054639 0.296023 -0.079158
v 0.011594 0.296023 -0.095482
v -0.034107 0.296023 -0.089933
v -0.071995 0.296023 -0.063782
v -0.093389 0.296023 -0.023018
v -0.093389 0.296023 0.023018
v -0.071995 0.296023 0.063782
v -0.034107 0.296023 0.089933
v 0.011594 0.296023 0.095482
v 0.054639 0.296023 0.079158
v 0.085167 0.296023 0.044699
v 0.096184 0.296023 0.000000
v 0.000000 -0.311257 0.000000
v 0.000000 0.311257 0.000000
vt 0.000000 0.100000
vt 0.076923 0.100000
vt 0.153846 0.100000
vt 0.230769 0.100000
vt 0.307692 0.100000
vt 0.384615 0.100000
vt 0.461538 0.100000
vt 0.538462 0.100000
vt 0.615385 0.100000
vt 0.692308 0.100000
vt 0.769231 0.100000
vt 0.846154 0.100000
vt 0.923077 0.100000
vt 1.000000 0.100000
vt 0.000000 0.200000
vt 0.076923 0.200000
vt 0.153846 0.200000
vt 0.230769 0.200000
vt 0.307692 0.200000
vt 0.384615 0.200000
vt 0.461538 0.200000
vt 0.538462 0.200000
vt 0.615385 0.200000
vt 0.692308 0.200000
vt 0.769231 0.200000
vt 0.846154 0.200000
vt 0.923077 0.200000
vt 1.000000 0.200000
vt 0.000000 0.300000
vt 0.076923 0.300000
vt 0.153846 0.300000
vt 0.230769 0.300000
vt 0.307692 0.300000
vt 0.384615 0.300000
vt 0.461538 0.300000
vt 0.538462 0.300000
vt 0.615385 0.300000
vt 0.692308 0.300000
vt 0.769231 0.300000
vt 0.846154 0.300000
vt 0.923077 0.300000
vt 1.000000 0.300000
vt 0.000000 0.400000
vt 0.076923 0.400000
vt 0.153846 0.400000
vt 0.230769 0.400000
vt 0.307692 0.400000
vt 0.384615 0.400000
vt 0.461538 0.400000
vt 0.538462 0.400000
vt 0.615385 0.400000
vt 0.692308 0.400000
vt 0.769231 0.400000
vt 0.846154 0.400000
vt 0.923077 0.400000
vt 1.000000 0.400000
vt 0.000000 0.500000
vt 0.076923 0.500000
vt 0.153846 0.500000
vt 0.230769 0.500000
vt 0.307692 0.500000
vt 0.384615 0.500000
vt 0.461538 0.500000
vt 0.538462 0.500000
vt 0.615385 0.500000
vt 0.692308 0.500000
vt 0.769231 0.500000
vt 0.846154 0.500000
vt 0.923077 0.500000
vt 1.000000 0.500000
vt 0.000000 0.600000
vt 0.076923 0.600000
vt 0.153846 0.600000
vt 0.230769 0.600000
vt 0.307692 0.600000
vt 0.384615 0.600000
vt 0.461538 0.600000
vt 0.538462 0.600000
vt 0.615385 0.600000
vt 0.692308 0.600000
vt 0.769231 0.600000
vt 0.846154 0.600000
vt 0.923077 0.600000
vt 1.000000 0.600000
vt 0.000000 0.700000
vt 0.076923 0.700000
vt 0.153846 0.700000
vt 0.230769 0.700000
vt 0.307692 0.700000
vt 0.384615 0.700000
vt 0.461538 0.700000
vt 0.538462 0.700000
vt 0.615385 0.700000
vt 0.692308 0.700000
vt 0.769231 0.700000
vt 0.846154 0.700000
vt 0.923077 0.700000
vt 1.000000 0.700000
vt 0.000000 0.800000
vt 0.076923 0.800000
vt 0.153846 0.800000
vt 0.230769 0.800000
vt 0.307692 0.800000
vt 0.384615 0.800000
vt 0.461538 0.800000
vt 0.538462 0.800000
vt 0.615385 0.800000
vt 0.692308 0.800000
vt 0.769231 0.800000
vt 0.846154 0.800000
vt 0.923077 0.800000
vt 1.000000 0.800000
vt 0.000000 0.900000
vt 0.076923 0.900000
vt 0.153846 0.900000
vt 0.230769 0.900000
vt 0.307692 0.900000
vt 0.384615 0.900000
vt 0.461538 0.900000
vt 0.538462 0.900000
vt 0.615385 0.900000
vt 0.692308 0.900000
vt 0.769231 0.900000
vt 0.846154 0.900000
vt 0.923077 0.900000
vt 1.000000 0.900000
vt 0.038462 0.000000
vt 0.115385 0.000000
vt 0.192308 0.000000
vt 0.269231 0.000000
vt 0.346154 0.000000
vt 0.423077 0.000000
vt 0.500000 0.000000
vt 0.576923 0.000000
vt 0.653846 0.000000
vt 0.730769 0.000000
vt 0.807692 0.000000
vt 0.884615 0.000000
vt 0.961538 0.000000
vt 0.038462 1.000000
vt 0.115385 1.000000
vt 0.192308 1.000000
vt 0.269231 1.000000
vt 0.346154 1.000000
vt 0.423077 1.000000
vt 0.500000 1.000000
vt 0.576923 1.000000
vt 0.653846 1.000000
vt 0.730769 1.000000
vt 0.807692 1.000000
vt 0.884615 1.000000
vt 0.961538 1.000000
vn 0.310222 -0.940697 -0.137302
vn 0.210880 -0.940697 -0.265743
vn 0.524728 -0.809381 -0.263748
vn 0.342054 -0.809380 -0.477391
vn 0.063229 -0.940697 -0.333304
vn 0.081019 -0.809381 -0.581669
vn -0.098908 -0.940697 -0.324510
vn -0.198576 -0.809381 -0.552694
vn -0.238386 -0.940697 -0.241374
vn -0.432680 -0.809380 -0.397103
vn -0.323253 -0.940697 -0.102943
vn -0.567662 -0.809380 -0.150541
vn -0.334066 -0.940697 0.059072
vn -0.572600 -0.809381 0.130509
vn -0.268349 -0.940697 0.207553
vn -0.446362 -0.809381 0.381660
vn -0.141156 -0.940697 0.308487
vn -0.217867 -0.809381 0.545378
vn 0.018374 -0.940697 0.338751
vn 0.060538 -0.809380 0.584156
vn 0.173694 -0.940697 0.291410
vn 0.325074 -0.809381 0.489111
vn 0.289224 -0.940697 0.177311
vn 0.515140 -0.809381 0.282017
vn 0.338495 -0.940697 0.022593
vn 0.587194 -0.809381 0.010316
vn 0.719397 -0.588320 -0.369253
vn 0.465394 -0.588320 -0.661278
vn 0.104775 -0.588320 -0.801812
vn -0.279847 -0.588319 -0.758661
vn -0.600359 -0.588319 -0.541709
vn -0.783337 -0.588319 -0.200659
vn -0.786861 -0.588320 0.186360
vn -0.610125 -0.588319 0.530686
vn -0.293616 -0.588319 0.753439
vn 0.090156 -0.588319 0.803587
vn 0.453275 -0.588319 0.669643
vn 0.712554 -0.588319 0.382292
vn 0.808595 -0.588319 0.007363
vn 0.843773 -0.309409 -0.438535
vn 0.543326 -0.309409 -0.780425
vn 0.118410 -0.309409 -0.943528
vn -0.333633 -0.309409 -0.890480
vn -0.709244 -0.309409 -0.633434
vn -0.922376 -0.309409 -0.231276
vn -0.924203 -0.309409 0.223865
vn -0.714306 -0.309409 0.627721
vn -0.340770 -0.309409 0.887774
vn 0.110832 -0.309409 0.944448
vn 0.537044 -0.309409 0.784761
vn 0.840225 -0.309409 0.445295
vn 0.950921 -0.309409 0.003817
vn 0.885456 0.000000 -0.464723
vn 0.568065 0.000000 -0.822984
vn 0.120537 -0.000000 -0.992709
vn -0.354605 -0.000000 -0.935016
vn -0.748511 0.000000 -0.663123
vn -0.970942 -0.000000 -0.239316
vn -0.970942 0.000000 0.239316
vn -0.748511 0.000000 0.663122
vn -0.354605 -0.000000 0.935016
vn 0.120537 0.000000 0.992709
vn 0.568065 0.000000 0.822984
vn 0.885456 0.000000 0.464723
vn 1.000000 -0.000000 0.000000
vn 0.840226 0.309409 -0.445294
vn 0.537044 0.309409 -0.784761
vn 0.110832 0.309409 -0.944448
vn -0.340770 0.309409 -0.887774
vn -0.714306 0.309409 -0.627721
vn -0.924203 0.309409 -0.223865
vn -0.922376 0.309409 0.231276
vn -0.709244 0.309409 0.633434
vn -0.333633 0.309409 0.890480
vn 0.118409 0.309409 0.943528
vn 0.543326 0.309409 0.780425
vn 0.843773 0.309409 0.438536
vn 0.950921 0.309409 -0.003816
vn 0.712554 0.588319 -0.382292
vn 0.453275 0.588319 -0.669643
vn 0.090156 0.588319 -0.803587
vn -0.293616 0.588319 -0.753439
vn -0.610125 0.588319 -0.530687
vn -0.786861 0.588319 -0.186361
vn -0.783337 0.588319 0.200658
vn -0.600360 0.588319 0.541709
vn -0.279847 0.588319 0.758660
vn 0.104775 0.588319 0.801812
vn 0.465394 0.588319 0.661278
vn 0.719397 0.588320 0.369253
vn 0.808595 0.588320 -0.007363
vn 0.515140 0.809381 -0.282017
vn 0.325074 0.809381 -0.489111
vn 0.060538 0.809381 -0.584156
vn -0.217867 0.809381 -0.545378
vn -0.446362 0.809381 -0.381660
vn -0.572600 0.809380 -0.130509
vn -0.567663 0.809380 0.150541
vn -0.432680 0.809380 0.397103
vn -0.198576 0.809380 0.552694
vn 0.081019 0.809381 0.581669
vn 0.342054 0.809381 0.477391
vn 0.524728 0.809381 0.263748
vn 0.587194 0.809381 -0.010316
vn 0.289224 0.940697 -0.177311
vn 0.173694 0.940697 -0.291410
vn 0.018374 0.940697 -0.338750
vn -0.141156 0.940697 -0.308488
vn -0.268349 0.940697 -0.207554
vn -0.334066 0.940697 -0.059072
vn -0.323253 0.940697 0.102943
vn -0.238386 0.940697 0.241374
vn -0.098908 0.940697 0.324510
vn 0.063229 0.940697 0.333304
vn 0.210880 0.940697 0.265742
vn 0.310222 0.940697 0.137302
vn 0.338495 0.940697 -0.022592
vn 0.000000 -1.000000 0.000000
vn 0.000000 1.000000 0.000000
f 1/1/1 2/2/2 14/15/3
f 14/15/3 2/2/2 15/16/4
f 2/2/2 3/3/5 15/16/4
f 15/16/4 3/3/5 16/17/6
f 3/3/5 4/4/7 16/17/6
f 16/17/6 4/4/7 17/18/8
f 4/4/7 5/5/9 17/18/8
f 17/18/8 5/5/9 18/19/10
f 5/5/9 6/6/11 18/19/10
f 18/19/10 6/6/11 19/20/12
f 6/6/11 7/7/13 19/20/12
f 19/20/12 7/7/13 20/21/14
f 7/7/13 8/8/15 20/21/14
f 20/21/14 8/8/15 21/22/16
f 8/8/15 9/9/17 21/22/16
f 21/22/16 9/9/17 22/23/18
f 9/9/17 10/10/19 22/23/18
f 22/23/18 10/10/19 23/24/20
f 10/10/19 11/11/21 23/24/20
f 23/24/20 11/11/21 24/25/22
f 11/11/21 12/12/23 24/25/22
f 24/25/22 12/12/23 25/26/24
f 12/12/23 13/13/25 25/26/24
f 25/26/24 13/13/25 26/27/26
f 13/13/25 1/14/1 26/27/26
f 26/27/26 1/14/1 14/28/3
f 14/15/3 15/16/4 27/29/27
f 27/29/27 15/16/4 28/30/28
f 15/16/4 16/17/6 28/30/28
f 28/30/28 16/17/6 29/31/29
f 16/17/6 17/18/8 29/31/29
f 29/31/29 17/18/8 30/32/30
f 17/18/8 18/19/10 30/32/30
f 30/32/30 18/19/10 31/33/31
f 18/19/10 19/20/12 31/33/31
f 31/33/31 19/20/12 32/34/32
f 19/20/12 20/21/14 32/34/32
f 32/34/32 20/21/14 33/35/33
f 20/21/14 21/22/16 33/35/33
f 33/35/33 21/22/16 34/36/34
f 21/22/16 22/23/18 34/36/34
f 34/36/34 22/23/18 35/37/35
f 22/23/18 23/24/20 35/37/35
f 35/37/35 23/24/20 36/38/36
f 23/24/20 24/25/22 36/38/36
f 36/38/36 24/25/22 37/39/37
f 24/25/22 25/26/24 37/39/37
f 37/39/37 25/26/24 38/40/38
f 25/26/24 26/27/26 38/40/38
f 38/40/38 26/27/26 39/41/39
f 26/27/26 14/28/3 39/41/39
f 39/41/39 14/28/3 27/42/27
f 27/29/27 28/30/28 40/43/40
f 40/43/40 28/30/28 41/44/41
f 28/30/28 29/31/29 41/44/41
f 41/44/41 29/31/29 42/45/42
f 29/31/29 30/32/30 42/45/42
f 42/45/42 30/32/30 43/46/43
f 30/32/30 31/33/31 43/46/43
f 43/46/43 31/33/31 44/47/44
f 31/33/31 32/34/32 44/47/44
f 44/47/44 32/34/32 45/48/45
f 32/34/32 33/35/33 45/48/45
f 45/48/45 33/35/33 46/49/46
f 33/35/33 34/36/34 46/49/46
f 46/49/46 34/36/34 47/50/47
f 34/36/34 35/37/35 47/50/47
f 47/50/47 35/37/35 48/51/48
f 35/37/35 36/38/36 48/51/48
f 48/51/48 36/38/36 49/52/49
f 36/38/36 37/39/37 49/52/49
f 49/52/49 37/39/37 50/53/50
f 37/39/37 38/40/38 50/53/50
f 50/53/50 38/40/38 51/54/51
f 38/40/38 39/41/39 51/54/51
f 51/54/51 39/41/39 52/55/52
f 39/41/39 27/42/27 52/55/52
f 52/55/52 27/42/27 40/56/40
f 40/43/40 41/44/41 53/57/53
f 53/57/53 41/44/41 54/58/54
f 41/44/41 42/45/42 54/58/54
f 54/58/54 42/45/42 55/59/55
f 42/45/42 43/46/43 55/59/55
f 55/59/55 43/46/43 56/60/56
f 43/46/43 44/47/44 56/60/56
f 56/60/56 44/47/44 57/61/57
f 44/47/44 45/48/45 57/61/57
f 57/61/57 45/48/45 58/62/58
f 45/48/45 46/49/46 58/62/58
f 58/62/58 46/49/46 59/63/59
f 46/49/46 47/50/47 59/63/59
f 59/63/59 47/50/47 60/64/60
f 47/50/47 48/51/48 60/64/60
f 60/64/60 48/51/48 61/65/61
f 48/51/48 49/52/49 61/65/61
f 61/65/61 49/52/49 62/66/62
f 49/52/49 50/53/50 62/66/62
f 62/66/62 50/53/50 63/67/63
f 50/53/50 51/54/51 63/67/63
f 63/67/63 51/54/51 64/68/64
f 51/54/51 52/55/52 64/68/64
f 64/68/64 52/55/52 65/69/65
f 52/55/52 40/56/40 65/69/65
f 65/69/65 40/56/40 53/70/53
f 53/57/53 54/58/54 66/71/66
f 66/71/66 54/58/54 67/72/67
f 54/58/54 55/59/55 67/72/67
f 67/72/67 55/59/55 68/73/68
f 55/59/55 56/60/56 68/73/68
f 68/73/68 56/60/56 69/74/69
f 56/60/56 57/61/57 69/74/69
f 69/74/69 57/61/57 70/75/70
f 57/61/57 58/62/58 70/75/70
f 70/75/70 58/62/58 71/76/71
f 58/62/58 59/63/59 71/76/71
f 71/76/71 59/63/59 72/77/72
f 59/63/59 60/64/60 72/77/72
f 72/77/72 60/64/60 73/78/73
f 60/64/60 61/65/61 73/78/73
f 73/78/73 61/65/61 74/79/74
f 61/65/61 62/66/62 74/79/74
f 74/79/74 62/66/62 75/80/75
f 62/66/62 63/67/63 75/80/75
f 75/80/75 63/67/63 76/81/76
f 63/67/63 64/68/64 76/81/76
f 76/81/76 64/68/64 77/82/77
f 64/68/64 65/69/65 77/82/77
f 77/82/77 65/69/65 78/83/78
f 65/69/65 53/70/53 78/83/78
f 78/83/78 53/70/53 66/84/66
f 66/71/66 67/72/67 79/85/79
f 79/85/79 67/72/67 80/86/80
f 67/72/67 68/73/68 80/86/80
f 80/86/80 68/73/68 81/87/81
f 68/73/68 69/74/69 81/87/81
f 81/87/81 69/74/69 82/88/82
f 69/74/69 70/75/70 82/88/82
f 82/88/82 70/75/70 83/89/83
f 70/75/70 71/76/71 83/89/83
f 83/89/83 71/76/71 84/90/84
f 71/76/71 72/77/72 84/90/84
f 84/90/84 72/77/72 85/91/85
f 72/77/72 73/78/73 85/91/85
f 85/91/85 73/78/73 86/92/86
f 73/78/73 74/79/74 86/92/86
f 86/92/86 74/79/74 87/93/87
f 74/79/74 75/80/75 87/93/87
f 87/93/87 75/80/75 88/94/88
f 75/80/75 76/81/76 88/94/88
f 88/94/88 76/81/76 89/95/89
f 76/81/76 77/82/77 89/95/89
f 89/95/89 77/82/77 90/96/90
f 77/82/77 78/83/78 90/96/90
f 90/96/90 78/83/78 91/97/91
f 78/83/78 66/84/66 91/97/91
f 91/97/91 66/84/66 79/98/79
f 79/85/79 80/86/80 92/99/92
f 92/99/92 80/86/80 93/100/93
f 80/86/80 81/87/81 93/100/93
f 93/100/93 81/87/81 94/101/94
f 81/87/81 82/88/82 94/101/94
f 94/101/94 82/88/82 95/102/95
f 82/88/82 83/89/83 95/102/95
f 95/102/95 83/89/83 96/103/96
f 83/89/83 84/90/84 96/103/96
f 96/103/96 84/90/84 97/104/97
f 84/90/84 85/91/85 97/104/97
f 97/104/97 85/91/85 98/105/98
f 85/91/85 86/92/86 98/105/98
f 98/105/98 86/92/86 99/106/99
f 86/92/86 87/93/87 99/106/99
f 99/106/99 87/93/87 100/107/100
f 87/93/87 88/94/88 100/107/100
f 100/107/100 88/94/88 101/108/101
f 88/94/88 89/95/89 101/108/101
f 101/108/101 89/95/89 102/109/102
f 89/95/89 90/96/90 102/109/102
f 102/109/102 90/96/90 103/110/103
f 90/96/90 91/97/91 103/110/103
f 103/110/103 91/97/91 104/111/104
f 91/97/91 79/98/79 104/111/104
f 104/111/104 79/98/79 92/112/92
f 92/99/92 93/100/93 105/113/105
f 105/113/105 93/100/93 106/114/106
f 93/100/93 94/101/94 106/114/106
f 106/114/106 94/101/94 107/115/107
f 94/101/94 95/102/95 107/115/107
f 107/115/107 95/102/95 108/116/108
f 95/102/95 96/103/96 108/116/108
f 108/116/108 96/103/96 109/117/109
f 96/103/96 97/104/97 109/117/109
f 109/117/109 97/104/97 110/118/110
f 97/104/97 98/105/98 110/118/110
f 110/118/110 98/105/98 111/119/111
f 98/105/98 99/106/99 111/119/111
f 111/119/111 99/106/99 112/120/112
f 99/106/99 100/107/100 112/120/112
f 112/120/112 100/107/100 113/121/113
f 100/107/100 101/108/101 113/121/113
f 113/121/113 101/108/101 114/122/114
f 101/108/101 102/109/102 114/122/114
f 114/122/114 102/109/102 115/123/115
f 102/109/102 103/110/103 115/123/115
f 115/123/115 103/110/103 116/124/116
f 103/110/103 104/111/104 116/124/116
f 116/124/116 104/111/104 117/125/117
f 104/111/104 92/112/92 117/125/117
f 117/125/117 92/112/92 105/126/105
f 2/2/2 1/1/1 118/127/118
f 3/3/5 2/2/2 118/128/118
f 4/4/7 3/3/5 118/129/118
f 5/5/9 4/4/7 118/130/118
f 6/6/11 5/5/9 118/131/118
f 7/7/13 6/6/11 118/132/118
f 8/8/15 7/7/13 118/133/118
f 9/9/17 8/8/15 118/134/118
f 10/10/19 9/9/17 118/135/118
f 11/11/21 10/10/19 118/136/118
f 12/12/23 11/11/21 118/137/118
f 13/13/25 12/12/23 118/138/118
f 1/14/1 13/13/25 118/139/118
f 105/113/105 106/114/106 119/140/119
f 106/114/106 107/115/107 119/141/119
f 107/115/107 108/116/108 119/142/119
f 108/116/108 109/117/109 119/143/119
f 109/117/109 110/118/110 119/144/119
f 110/118/110 111/119/111 119/145/119
f 111/119/111 112/120/112 119/146/119
f 112/120/112 113/121/113 119/147/119
f 113/121/113 114/122/114 119/148/119
f 114/122/114 115/123/115 119/149/119
f 115/123/115 116/124/116 119/150/119
f 116/124/116 117/125/117 119/151/119
f 117/125/117 105/126/105 119/152/119
