# This file uses centimeters as units for non-parametric coordinates.

mtllib ground.mtl
g default
v -46.220901 -0.619822 45.917347
v 46.220901 -0.619822 45.917347
v -46.220901 0.619822 45.917347
v 46.220901 0.619822 45.917347
v -46.220901 0.619822 -45.917347
v 46.220901 0.619822 -45.917347
v -46.220901 -0.619822 -45.917347
v 46.220901 -0.619822 -45.917347
vt 0.164894 0.991276
vt 0.157651 0.991276
vt 0.157651 0.975712
vt 0.164894 0.975712
vt 0.988307 0.957171
vt 0.009419 0.957171
vt 0.009419 0.052004
vt 0.988307 0.052004
vt 0.566831 0.983323
vt 0.559587 0.983323
vt 0.559587 0.968895
vt 0.566831 0.968895
vt 0.779518 0.983042
vt 0.771710 0.983042
vt 0.771710 0.975822
vt 0.779518 0.975822
vt 0.771621 0.982995
vt 0.771515 0.982995
vt 0.771515 0.975822
vt 0.771621 0.975822
vt 0.771426 0.982995
vt 0.771321 0.982995
vt 0.771321 0.975822
vt 0.771426 0.975822
vn 0.000000 0.000000 1.000000
vn 0.000000 0.000000 1.000000
vn 0.000000 0.000000 1.000000
vn 0.000000 0.000000 1.000000
vn 0.000000 1.000000 0.000000
vn 0.000000 1.000000 0.000000
vn 0.000000 1.000000 0.000000
vn 0.000000 1.000000 0.000000
vn 0.000000 0.000000 -1.000000
vn 0.000000 0.000000 -1.000000
vn 0.000000 0.000000 -1.000000
vn 0.000000 0.000000 -1.000000
vn 0.000000 -1.000000 0.000000
vn 0.000000 -1.000000 0.000000
vn 0.000000 -1.000000 0.000000
vn 0.000000 -1.000000 0.000000
vn 1.000000 0.000000 0.000000
vn 1.000000 0.000000 0.000000
vn 1.000000 0.000000 0.000000
vn 1.000000 0.000000 0.000000
vn -1.000000 0.000000 0.000000
vn -1.000000 0.000000 0.000000
vn -1.000000 0.000000 0.000000
vn -1.000000 0.000000 0.000000
s 1
g floor_tri
usemtl initialShadingGroup
f 3/1/1 1/2/2 4/4/3
f 4/4/3 1/2/2 2/3/4
s 2
f 5/5/5 3/6/6 6/8/7
f 6/8/7 3/6/6 4/7/8
s 3
f 7/9/9 5/10/10 8/12/11
f 8/12/11 5/10/10 6/11/12
s 4
f 1/13/13 7/14/14 2/16/15
f 2/16/15 7/14/14 8/15/16
s 5
f 4/17/17 2/18/18 6/20/19
f 6/20/19 2/18/18 8/19/20
s 6
f 5/21/21 7/22/22 3/24/23
f 3/24/23 7/22/22 1/23/24
