# This file uses centimeters as units for non-parametric coordinates.

v -1.603929 -1.064855 -1.172693
v 1.591463 -1.064855 -1.172693
v -1.603929 0.978491 -1.172693
v 1.591463 0.978491 -1.172693
v -1.603929 0.622086 -2.542173
v 1.591463 0.622086 -2.542173
v -1.603929 -0.875171 -2.542173
v 1.591463 -0.875171 -2.542173
v -1.603929 0.295347 -3.228364
v 1.591463 0.295347 -3.228364
v 1.591463 -0.548431 -3.228364
v -1.603929 -0.548431 -3.228364
vt 0.375000 0.000000
vt 0.625000 0.000000
vt 0.375000 0.250000
vt 0.625000 0.250000
vt 0.375000 0.500000
vt 0.625000 0.500000
vt 0.375000 0.750000
vt 0.625000 0.750000
vt 0.375000 1.000000
vt 0.625000 1.000000
vt 0.875000 0.000000
vt 0.875000 0.250000
vt 0.125000 0.000000
vt 0.125000 0.250000
vt 0.375000 0.500000
vt 0.625000 0.500000
vt 0.625000 0.750000
vt 0.375000 0.750000
vn 0.000000 0.000000 1.000000
vn 0.000000 0.000000 1.000000
vn 0.000000 0.000000 1.000000
vn 0.000000 0.000000 1.000000
vn 0.000000 0.967764 -0.251859
vn 0.000000 0.967764 -0.251859
vn 0.000000 0.967764 -0.251859
vn 0.000000 0.967764 -0.251859
vn 0.000000 0.000000 -1.000000
vn 0.000000 0.000000 -1.000000
vn 0.000000 0.000000 -1.000000
vn 0.000000 0.000000 -1.000000
vn 0.000000 -0.990543 -0.137199
vn 0.000000 -0.990543 -0.137199
vn 0.000000 -0.990543 -0.137199
vn 0.000000 -0.990543 -0.137199
vn 1.000000 0.000000 0.000000
vn 1.000000 0.000000 0.000000
vn 1.000000 0.000000 0.000000
vn 1.000000 0.000000 0.000000
vn -1.000000 0.000000 0.000000
vn -1.000000 0.000000 0.000000
vn -1.000000 0.000000 0.000000
vn -1.000000 0.000000 0.000000
vn 0.000000 0.902870 -0.429914
vn 0.000000 0.902870 -0.429914
vn 0.000000 0.902870 -0.429914
vn 0.000000 0.902870 -0.429914
vn 1.000000 0.000000 0.000000
vn 1.000000 0.000000 0.000000
vn 1.000000 0.000000 0.000000
vn 1.000000 0.000000 0.000000
vn 0.000000 -0.902870 -0.429914
vn 0.000000 -0.902870 -0.429914
vn 0.000000 -0.902870 -0.429914
vn 0.000000 -0.902870 -0.429914
vn -1.000000 0.000000 0.000000
vn -1.000000 0.000000 0.000000
vn -1.000000 0.000000 0.000000
vn -1.000000 0.000000 0.000000
f 1/1/1 2/2/2 3/3/3
f 3/3/3 2/2/2 4/4/4
f 3/3/5 4/4/6 5/5/7
f 5/5/7 4/4/6 6/6/8
f 9/15/9 10/16/10 12/18/11
f 12/18/11 10/16/10 11/17/12
f 7/7/13 8/8/14 1/9/15
f 1/9/15 8/8/14 2/10/16
f 8/11/17 6/12/18 2/2/19
f 2/2/19 6/12/18 4/4/20
f 7/13/21 1/1/22 5/14/23
f 5/14/23 1/1/22 3/3/24
f 5/5/25 6/6/26 9/15/27
f 9/15/27 6/6/26 10/16/28
f 6/6/29 8/8/30 10/16/31
f 10/16/31 8/8/30 11/17/32
f 8/8/33 7/7/34 11/17/35
f 11/17/35 7/7/34 12/18/36
f 7/7/37 5/5/38 12/18/39
f 12/18/39 5/5/38 9/15/40
