# This file uses centimeters as units for non-parametric coordinates.

v -1.150129 0.739279 -1.914083
v -0.383376 0.739279 -1.914083
v 0.383376 0.739279 -1.914083
v 1.150129 0.739279 -1.914083
v -1.150129 0.552477 -2.657321
v -0.383376 0.552477 -2.657321
v 0.383376 0.552477 -2.657321
v 1.150129 0.552477 -2.657321
v -1.548045 0.164749 -3.195520
v -0.516015 0.164749 -3.195520
v 0.516015 0.164749 -3.195520
v 1.548045 0.164749 -3.195520
v -1.548045 -0.330842 -3.211812
v -0.516015 -0.330842 -3.211812
v 0.516015 -0.330842 -3.211812
v 1.548046 -0.330842 -3.211812
v -0.997527 -0.711586 -2.627354
v -0.332509 -0.711586 -2.627354
v 0.332509 -0.711586 -2.627354
v 0.997527 -0.711586 -2.627354
v -0.997527 -0.912481 -1.993483
v -0.332509 -0.912481 -1.993483
v 0.332509 -0.912481 -1.993483
v 0.997527 -0.912481 -1.993483
v 1.548046 -0.351412 -2.312110
v 1.548045 0.221698 -2.297180
v -1.548045 -0.352705 -2.312110
v -1.548045 0.219111 -2.297180
v 1.548046 -0.205659 -3.209799
v 0.516015 -0.205659 -3.209799
v -0.516015 -0.205659 -3.209799
v -1.548045 -0.205659 -3.209799
v -1.548045 -0.218106 -2.310266
v 1.548046 -0.216653 -2.310266
v 0.516015 -0.277384 -3.129495
v 1.507529 -0.279206 -3.169647
v -0.516014 -0.277384 -3.129495
v -1.507528 -0.279448 -3.169647
v -1.467013 -0.288061 -2.310266
v 1.467013 -0.285640 -2.310266
v -1.150129 0.966057 -1.205173
v -0.383376 0.966057 -1.205173
v 0.383376 0.966057 -1.205173
v 1.150129 0.966057 -1.205173
v -0.332509 -1.015176 -1.238621
v -0.997527 -1.015176 -1.238621
v 0.332509 -1.015176 -1.238621
v 0.997527 -1.015176 -1.238621
v 1.548046 -0.349504 -1.396151
v 1.548045 0.326626 -1.406627
v 1.548046 -0.202019 -1.397445
v -1.548045 -0.357547 -1.396151
v -1.548045 -0.211056 -1.397445
v -1.548045 0.310540 -1.406627
v -1.467013 -0.287090 -1.397445
v 1.467013 -0.277325 -1.397445
v -0.378103 0.325863 -1.272850
v 0.379966 0.325863 -1.272850
v -0.346555 -0.357547 -1.396151
v -0.346555 -0.211056 -1.397445
v -0.352055 -0.287090 -1.397445
v 0.380091 -0.357547 -1.396151
v 0.380091 -0.211056 -1.397445
v 0.380074 -0.287090 -1.397445
vt 0.156211 0.558945
vt 0.228087 0.558997
vt 0.156140 0.658289
vt 0.228016 0.658340
vt 0.156069 0.757632
vt 0.227944 0.757684
vt 0.155998 0.856975
vt 0.227873 0.857027
vt 0.080855 0.558891
vt 0.080784 0.658235
vt 0.080713 0.757578
vt 0.080642 0.856921
vt 0.026229 0.641010
vt 0.026325 0.507297
vt 0.026133 0.774724
vt 0.026038 0.908438
vt 0.976643 0.805206
vt 0.943028 0.805206
vt 0.976643 0.719167
vt 0.943028 0.719167
vt 0.976643 0.633128
vt 0.943028 0.633128
vt 0.976643 0.547089
vt 0.943028 0.547089
vt 0.701654 0.391453
vt 0.766103 0.391453
vt 0.736033 0.428003
vt 0.777563 0.428003
vt 0.819092 0.428003
vt 0.830552 0.391453
vt 0.895001 0.391453
vt 0.860622 0.428003
vt 0.736033 0.467644
vt 0.777563 0.467644
vt 0.819092 0.467644
vt 0.860622 0.467644
vt 0.736033 0.514850
vt 0.777563 0.514850
vt 0.819092 0.514850
vt 0.860622 0.514850
vt 0.895001 0.447718
vt 0.895001 0.504999
vt 0.733112 0.284859
vt 0.731557 0.329829
vt 0.635164 0.283525
vt 0.633739 0.336742
vt 0.535769 0.285301
vt 0.536768 0.349481
vt 0.672954 0.376901
vt 0.592024 0.399579
vt 0.514833 0.427111
vt 0.701654 0.447718
vt 0.701654 0.504999
vt 0.271308 0.010466
vt 0.371977 0.008959
vt 0.272906 0.055289
vt 0.373441 0.061868
vt 0.474133 0.009812
vt 0.473106 0.072932
vt 0.333137 0.102209
vt 0.416315 0.124814
vt 0.495651 0.152257
vt 0.936713 0.927794
vt 0.991901 0.928860
vt 0.936832 0.919790
vt 0.994608 0.922497
vt 0.878094 0.927914
vt 0.878011 0.919190
vt 0.392305 0.946275
vt 0.388385 0.931544
vt 0.292460 0.946275
vt 0.292460 0.931909
vt 0.392305 0.921202
vt 0.292460 0.921202
vt 0.192615 0.946275
vt 0.192615 0.931909
vt 0.192615 0.921202
vt 0.092771 0.946275
vt 0.096690 0.931496
vt 0.092771 0.921202
vt 0.994479 0.937997
vt 0.936713 0.936455
vt 0.878094 0.937328
vt 0.876246 0.962441
vt 0.876161 0.954756
vt 0.936049 0.961555
vt 0.936170 0.954553
vt 0.876246 0.970458
vt 0.936049 0.968900
vt 0.992351 0.962240
vt 0.995113 0.956743
vt 0.994981 0.970071
vt 0.544331 0.339887
vt 0.544331 0.339887
vt 0.576985 0.329083
vt 0.555301 0.329335
vt 0.544331 0.339887
vt 0.555301 0.329335
vt 0.544331 0.339887
vt 0.576985 0.329348
vt 0.575287 0.318072
vt 0.549753 0.307233
vt 0.549753 0.307233
vt 0.575287 0.318072
vt 0.575497 0.320486
vt 0.575497 0.320486
vt 0.575497 0.319233
vt 0.575497 0.319233
vt 0.549753 0.307233
vt 0.575287 0.318072
vt 0.575497 0.320486
vt 0.575497 0.319233
vt 0.549753 0.307233
vt 0.575287 0.318204
vt 0.575497 0.320635
vt 0.575497 0.319394
vn 0.000000 0.964473 -0.264183
vn 0.000000 0.952453 -0.304687
vn 0.000000 0.961628 -0.274358
vn 0.000000 0.952453 -0.304687
vn 0.000000 0.961628 -0.274358
vn 0.000000 0.952453 -0.304687
vn 0.000000 0.958675 -0.284503
vn 0.000000 0.952453 -0.304687
vn 0.000000 0.969837 -0.243754
vn 0.000000 0.969837 -0.243754
vn 0.000000 0.969837 -0.243754
vn 0.000000 0.969837 -0.243754
vn 0.000000 0.811373 -0.584528
vn 0.000000 0.811373 -0.584528
vn 0.000000 0.811373 -0.584528
vn 0.000000 0.811373 -0.584529
vn 0.000000 0.811373 -0.584528
vn 0.000000 0.811373 -0.584528
vn 0.000000 0.811373 -0.584528
vn 0.000000 0.811373 -0.584529
vn 0.000000 0.038522 -0.999258
vn 0.000000 0.038522 -0.999258
vn 0.000000 0.038522 -0.999258
vn 0.000000 0.038522 -0.999258
vn 0.000000 0.038522 -0.999258
vn 0.000000 0.038522 -0.999258
vn 0.000000 0.038522 -0.999258
vn 0.000000 0.038522 -0.999258
vn 0.000000 -0.837889 -0.545841
vn 0.000000 -0.837889 -0.545841
vn 0.000000 -0.837889 -0.545841
vn 0.000000 -0.837889 -0.545841
vn 0.000000 -0.837889 -0.545841
vn 0.000000 -0.837889 -0.545841
vn 0.000000 -0.837889 -0.545841
vn 0.000000 -0.837889 -0.545841
vn 0.000000 -0.981551 -0.191202
vn 0.000000 -0.953269 -0.302123
vn 0.000000 -0.975664 -0.219271
vn 0.000000 -0.953269 -0.302123
vn 0.000000 -0.975664 -0.219271
vn 0.000000 -0.953269 -0.302123
vn 0.000000 -0.968975 -0.247159
vn 0.000000 -0.953269 -0.302123
vn 0.000000 -0.990872 -0.134803
vn 0.000000 -0.990872 -0.134803
vn 0.000000 -0.990872 -0.134803
vn 0.000000 -0.990872 -0.134803
vn 0.703266 -0.702612 -0.108408
vn 0.593459 -0.794522 -0.128614
vn 0.636781 -0.766298 -0.085426
vn 0.554986 -0.831643 -0.019014
vn 0.757288 -0.647120 -0.088037
vn 0.736910 -0.674599 -0.043358
vn 1.000000 0.000003 0.000000
vn 1.000000 0.000003 -0.000000
vn 1.000000 0.000002 -0.000000
vn 1.000000 0.000002 -0.000000
vn 1.000000 0.000002 -0.000000
vn 1.000000 0.000002 -0.000000
vn 0.663522 0.746658 -0.047333
vn 0.691933 0.713685 -0.109009
vn 0.716447 0.690723 -0.098002
vn 0.764993 0.628180 -0.142044
vn 0.787767 0.602589 -0.127705
vn 0.808998 0.559862 -0.179098
vn -0.700554 -0.705006 -0.110409
vn -0.635202 -0.767358 -0.087639
vn -0.592434 -0.795168 -0.129345
vn -0.554094 -0.832208 -0.020223
vn -0.753213 -0.651773 -0.088670
vn -0.733617 -0.677987 -0.046258
vn -1.000000 0.000001 0.000000
vn -1.000000 0.000000 0.000000
vn -1.000000 0.000000 0.000000
vn -1.000000 -0.000000 0.000000
vn -1.000000 -0.000000 0.000000
vn -1.000000 0.000000 0.000000
vn -0.665210 0.745293 -0.045101
vn -0.719955 0.687675 -0.093634
vn -0.693898 0.711984 -0.107630
vn -0.770630 0.622300 -0.137377
vn -0.794873 0.594605 -0.120921
vn -0.816608 0.549748 -0.175863
vn -0.634731 0.772615 0.013524
vn -0.712525 0.701156 0.026233
vn -0.683900 0.729332 0.018862
vn -0.791116 0.611485 0.014859
vn -0.656159 0.754622 -0.000803
vn -0.640063 0.768320 0.001665
vn 0.000000 -0.479177 -0.877718
vn -0.014379 -0.621476 -0.783301
vn -0.007163 -0.686636 -0.726966
vn -0.014169 -0.745746 -0.666080
vn 0.000000 0.632497 -0.774563
vn -0.005174 0.794247 -0.607574
vn -0.010380 0.744461 -0.667585
vn -0.010256 0.838625 -0.544613
vn 0.009632 -0.665183 -0.746618
vn 0.009506 -0.745787 -0.666116
vn 0.006769 0.838650 -0.544629
vn 0.006841 0.778689 -0.627373
vn 0.000000 -0.477968 -0.878377
vn 0.014473 -0.620935 -0.783729
vn 0.010275 0.745228 -0.666730
vn 0.000000 0.634274 -0.773108
vn -0.874991 -0.484094 -0.006699
vn -0.776310 -0.630295 0.008390
vn -0.724445 -0.689308 0.005802
vn -0.653429 -0.756892 0.012011
vn -0.684249 -0.729226 0.005632
vn -0.669008 -0.743248 0.003219
vn 0.665180 0.746652 -0.006801
vn 0.647854 0.761753 -0.004211
vn 0.642147 0.766528 0.009038
vn 0.688407 0.725147 0.016049
vn 0.680701 -0.732468 0.011742
vn 0.664624 -0.747119 0.009341
vn 0.721020 -0.692849 0.009509
vn 0.648163 -0.761335 0.015895
vn 0.716069 0.697585 0.024905
vn 0.792143 0.610176 0.013950
vn 0.874500 -0.484989 -0.005928
vn 0.773805 -0.633351 0.009619
vn 0.000000 -0.105127 0.994459
vn -0.053947 -0.169091 0.984123
vn -0.026950 -0.137174 0.990180
vn -0.107511 -0.231853 0.966791
vn 0.000000 -0.105127 0.994459
vn 0.037037 -0.149016 0.988141
vn 0.055580 -0.170856 0.983727
vn 0.110741 -0.235298 0.965594
vn 0.000000 0.232952 0.972488
vn 0.000000 0.232952 0.972488
vn 0.000000 0.232952 0.972488
vn 0.000000 0.232952 0.972488
vn -0.113814 0.017487 0.993348
vn -0.057431 -0.105241 0.992787
vn -0.057431 -0.105241 0.992787
vn 0.000000 -0.226049 0.974116
vn 0.000000 0.018365 0.999831
vn 0.000000 0.018365 0.999831
vn 0.000000 0.018365 0.999831
vn 0.000000 0.018365 0.999831
vn 0.000000 0.000000 1.000000
vn 0.000000 0.000000 1.000000
vn 0.000000 0.000000 1.000000
vn 0.000000 0.000000 1.000000
vn 0.000000 0.232952 0.972488
vn 0.000000 0.232952 0.972488
vn 0.000000 0.232952 0.972488
vn 0.000000 0.232952 0.972488
vn 0.000000 -0.226049 0.974116
vn 0.000000 -0.226049 0.974116
vn 0.000000 -0.226049 0.974116
vn 0.000000 -0.226049 0.974116
vn 0.000000 0.018365 0.999831
vn 0.000000 0.018365 0.999831
vn 0.000000 0.018365 0.999831
vn 0.000000 0.018365 0.999831
vn 0.000000 0.000000 1.000000
vn 0.000000 0.000000 1.000000
vn 0.000000 0.000000 1.000000
vn 0.000000 0.000000 1.000000
vn 0.000000 0.232952 0.972488
vn -0.000797 0.232244 0.972657
vn -0.000797 0.232244 0.972657
vn -0.001594 0.231535 0.972825
vn 0.111021 -0.224627 0.968100
vn 0.055949 -0.104574 0.992942
vn 0.055949 -0.104574 0.992942
vn -0.000134 0.017367 0.999849
vn -0.000165 0.018365 0.999831
vn -0.000144 0.018077 0.999837
vn -0.000144 0.018077 0.999837
vn -0.000122 0.017789 0.999842
vn 0.000000 0.000000 1.000000
vn 0.000000 0.000000 1.000000
vn 0.000000 0.000000 1.000000
vn 0.000000 0.000000 1.000000
f 1/1/1 41/2/2 2/3/3
f 2/3/3 41/2/2 42/4/4
f 2/3/3 42/4/4 3/5/5
f 3/5/5 42/4/4 43/6/6
f 3/5/5 43/6/6 4/7/7
f 4/7/7 43/6/6 44/8/8
f 5/9/9 1/1/1 6/10/10
f 6/10/10 1/1/1 2/3/3
f 6/10/10 2/3/3 7/11/11
f 7/11/11 2/3/3 3/5/5
f 7/11/11 3/5/5 8/12/12
f 8/12/12 3/5/5 4/7/7
f 6/10/13 10/13/14 5/9/15
f 5/9/15 10/13/14 9/14/16
f 10/13/14 6/10/13 11/15/17
f 11/15/17 6/10/13 7/11/18
f 7/11/18 8/12/19 11/15/17
f 11/15/17 8/12/19 12/16/20
f 32/17/21 9/18/22 31/19/23
f 31/19/23 9/18/22 10/20/24
f 31/19/23 10/20/24 30/21/25
f 30/21/25 10/20/24 11/22/26
f 30/21/25 11/22/26 29/23/27
f 29/23/27 11/22/26 12/24/28
f 13/25/29 14/26/30 17/27/31
f 17/27/31 14/26/30 18/28/32
f 18/28/32 14/26/30 19/29/33
f 19/29/33 14/26/30 15/30/34
f 16/31/35 20/32/36 15/30/34
f 15/30/34 20/32/36 19/29/33
f 21/33/37 17/27/38 22/34/39
f 22/34/39 17/27/38 18/28/40
f 22/34/39 18/28/40 23/35/41
f 23/35/41 18/28/40 19/29/42
f 23/35/41 19/29/42 24/36/43
f 24/36/43 19/29/42 20/32/44
f 46/37/45 21/33/37 45/38/46
f 45/38/46 21/33/37 22/34/39
f 45/38/46 22/34/39 47/39/47
f 47/39/47 22/34/39 23/35/41
f 47/39/47 23/35/41 48/40/48
f 48/40/48 23/35/41 24/36/43
f 24/36/49 20/32/50 25/41/51
f 25/41/51 20/32/50 16/31/52
f 48/40/53 24/36/49 49/42/54
f 49/42/54 24/36/49 25/41/51
f 29/43/55 12/44/56 34/45/57
f 34/45/57 12/44/56 26/46/58
f 34/45/57 26/46/58 51/47/59
f 51/47/59 26/46/58 50/48/60
f 12/44/61 8/49/62 26/46/63
f 26/46/63 8/49/62 4/50/64
f 26/46/63 4/50/64 50/48/65
f 50/48/65 4/50/64 44/51/66
f 21/33/67 27/52/68 17/27/69
f 17/27/69 27/52/68 13/25/70
f 46/37/71 52/53/72 21/33/67
f 21/33/67 52/53/72 27/52/68
f 32/54/73 33/55/74 9/56/75
f 9/56/75 33/55/74 28/57/76
f 33/55/74 53/58/77 28/57/76
f 28/57/76 53/58/77 54/59/78
f 9/56/79 28/57/80 5/60/81
f 5/60/81 28/57/80 1/61/82
f 28/57/80 54/59/83 1/61/82
f 1/61/82 54/59/83 41/62/84
f 39/63/85 38/64/86 27/65/87
f 27/65/87 38/64/86 13/66/88
f 55/67/89 39/63/85 52/68/90
f 52/68/90 39/63/85 27/65/87
f 29/69/91 36/70/92 30/71/93
f 30/71/93 36/70/92 35/72/94
f 16/73/95 15/74/96 36/70/97
f 36/70/97 15/74/96 35/72/98
f 31/75/99 30/71/93 37/76/100
f 37/76/100 30/71/93 35/72/94
f 35/72/98 15/74/96 37/76/101
f 37/76/101 15/74/96 14/77/102
f 32/78/103 31/75/99 38/79/104
f 38/79/104 31/75/99 37/76/100
f 37/76/101 14/77/102 38/79/105
f 38/79/105 14/77/102 13/80/106
f 32/81/107 38/64/108 33/82/109
f 33/82/109 38/64/108 39/63/110
f 53/83/111 33/82/109 55/67/112
f 55/67/112 33/82/109 39/63/110
f 56/84/113 49/85/114 40/86/115
f 40/86/115 49/85/114 25/87/116
f 51/88/117 56/84/118 34/89/119
f 34/89/119 56/84/118 40/86/120
f 40/86/115 25/87/116 36/90/121
f 36/90/121 25/87/116 16/91/122
f 29/92/123 34/89/119 36/90/124
f 36/90/124 34/89/119 40/86/120
f 42/93/125 41/94/126 57/96/127
f 57/96/127 41/94/126 54/95/128
f 42/93/125 57/96/127 43/97/129
f 43/97/129 57/96/127 58/98/130
f 43/97/129 58/98/130 44/99/131
f 44/99/131 58/98/130 50/100/132
f 52/101/133 46/102/134 59/104/135
f 59/104/135 46/102/134 45/103/136
f 54/95/137 53/105/138 57/96/139
f 57/96/139 53/105/138 60/106/140
f 52/101/141 59/104/142 55/107/143
f 55/107/143 59/104/142 61/108/144
f 53/105/145 55/107/146 60/106/147
f 60/106/147 55/107/146 61/108/148
f 45/103/149 47/109/150 59/104/151
f 59/104/151 47/109/150 62/110/152
f 57/96/153 60/106/154 58/98/155
f 58/98/155 60/106/154 63/111/156
f 61/108/157 59/104/158 64/112/159
f 64/112/159 59/104/158 62/110/160
f 61/108/161 64/112/162 60/106/163
f 60/106/163 64/112/162 63/111/164
f 47/109/165 48/113/166 62/110/167
f 62/110/167 48/113/166 49/114/168
f 58/98/169 63/111/170 50/100/171
f 50/100/171 63/111/170 51/115/172
f 64/112/173 62/110/174 56/116/175
f 56/116/175 62/110/174 49/114/176
f 64/112/177 56/116/178 63/111/179
f 63/111/179 56/116/178 51/115/180
