# This file uses centimeters as units for non-parametric coordinates.

v 42.493095 1.735681 0.847244
v 42.493095 1.735681 -0.847244
v 42.493095 2.569142 0.847244
v 42.493095 2.569142 -0.847244
v -42.736938 2.569142 0.847244
v -42.736938 2.569142 -0.847244
v -42.736938 1.735681 0.847244
v -42.736938 1.735681 -0.847244
v 42.654163 -2.141390 -1.076866
v -42.805416 -2.141472 -1.076866
v 42.654163 0.621980 -1.076866
v -42.805416 0.621980 -1.076866
v 42.654148 0.621980 1.076866
v -42.805431 0.621980 1.076866
v 42.654148 -2.141472 1.076866
v -42.805431 -2.141390 1.076866
vt 0.582583 0.001992
vt 0.688184 0.001992
vt 0.688184 0.995331
vt 0.582583 0.995331
vt 0.720118 0.001992
vt 0.825718 0.001992
vt 0.825718 0.995331
vt 0.720118 0.995331
vt 0.857652 0.995331
vt 0.857652 0.001992
vt 0.909593 0.001992
vt 0.909593 0.995331
vt 0.946067 0.995331
vt 0.946067 0.001992
vt 0.998008 0.001992
vt 0.998008 0.995331
vt 0.174211 0.998008
vt 0.001997 0.998008
vt 0.001992 0.001992
vt 0.174211 0.001992
vt 0.209276 0.001992
vt 0.343497 0.001992
vt 0.343497 0.998008
vt 0.209276 0.998008
vt 0.376282 0.001992
vt 0.548500 0.001992
vt 0.548500 0.998008
vt 0.376287 0.998008
vn 0.000000 1.000000 0.000000
vn 0.000000 1.000000 0.000000
vn 0.000000 1.000000 0.000000
vn 0.000000 1.000000 0.000000
vn 0.000000 1.000000 0.000000
vn 0.000000 1.000000 0.000000
vn 0.000000 -1.000000 0.000000
vn 0.000000 -1.000000 0.000000
vn 0.000000 -1.000000 0.000000
vn 0.000000 -1.000000 0.000000
vn 0.000000 -1.000000 0.000000
vn 0.000000 -1.000000 0.000000
vn 0.000000 0.000000 -1.000000
vn 0.000000 0.000000 -1.000000
vn 0.000000 0.000000 -1.000000
vn 0.000000 0.000000 -1.000000
vn 0.000000 0.000000 -1.000000
vn 0.000000 0.000000 -1.000000
vn -0.000000 0.000000 1.000000
vn -0.000000 0.000000 1.000000
vn -0.000000 0.000000 1.000000
vn -0.000000 0.000000 1.000000
vn -0.000000 0.000000 1.000000
vn -0.000000 0.000000 1.000000
vn 0.000000 0.000000 -1.000000
vn 0.000000 0.000000 -1.000000
vn 0.000000 0.000000 -1.000000
vn 0.000000 0.000000 -1.000000
vn 0.000000 0.000000 -1.000000
vn 0.000000 0.000000 -1.000000
vn 0.000000 1.000000 0.000000
vn 0.000000 1.000000 0.000000
vn 0.000000 1.000000 0.000000
vn 0.000000 1.000000 0.000000
vn 0.000000 1.000000 0.000000
vn 0.000000 1.000000 0.000000
vn -0.000000 0.000000 1.000000
vn -0.000000 0.000000 1.000000
vn -0.000000 0.000000 1.000000
vn -0.000000 0.000000 1.000000
vn -0.000000 0.000000 1.000000
vn -0.000000 0.000000 1.000000
f 3/1/1 4/2/2 5/4/3
f 5/4/4 4/2/5 6/3/6
f 7/5/7 8/6/8 1/8/9
f 1/8/10 8/6/11 2/7/12
f 2/9/13 8/10/14 4/12/15
f 4/12/16 8/10/17 6/11/18
f 7/13/19 1/14/20 5/16/21
f 5/16/22 1/14/23 3/15/24
f 11/17/25 9/18/26 12/20/27
f 12/20/28 9/18/29 10/19/30
f 13/21/31 11/22/32 14/24/33
f 14/24/34 11/22/35 12/23/36
f 15/25/37 13/26/38 16/28/39
f 16/28/40 13/26/41 14/27/42
v 42.493095 1.735681 0.847244
v 42.493095 1.735681 -0.847244
v 42.493095 2.569142 0.847244
v 42.493095 2.569142 -0.847244
v -42.736938 2.569142 0.847244
v -42.736938 2.569142 -0.847244
v -42.736938 1.735681 0.847244
v -42.736938 1.735681 -0.847244
v 42.654163 -2.141390 -1.076866
v -42.805416 -2.141472 -1.076866
v 42.654163 0.621980 -1.076866
v -42.805416 0.621980 -1.076866
v 42.654148 0.621980 1.076866
v -42.805431 0.621980 1.076866
v 42.654148 -2.141472 1.076866
v -42.805431 -2.141390 1.076866
vt 0.582583 0.001992
vt 0.688184 0.001992
vt 0.688184 0.995331
vt 0.582583 0.995331
vt 0.720118 0.001992
vt 0.825718 0.001992
vt 0.825718 0.995331
vt 0.720118 0.995331
vt 0.857652 0.995331
vt 0.857652 0.001992
vt 0.909593 0.001992
vt 0.909593 0.995331
vt 0.946067 0.995331
vt 0.946067 0.001992
vt 0.998008 0.001992
vt 0.998008 0.995331
vt 0.174211 0.998008
vt 0.001997 0.998008
vt 0.001992 0.001992
vt 0.174211 0.001992
vt 0.209276 0.001992
vt 0.343497 0.001992
vt 0.343497 0.998008
vt 0.209276 0.998008
vt 0.376282 0.001992
vt 0.548500 0.001992
vt 0.548500 0.998008
vt 0.376287 0.998008
vn 0.000000 1.000000 0.000000
vn 0.000000 1.000000 0.000000
vn 0.000000 1.000000 0.000000
vn 0.000000 1.000000 0.000000
vn 0.000000 1.000000 0.000000
vn 0.000000 1.000000 0.000000
vn 0.000000 -1.000000 0.000000
vn 0.000000 -1.000000 0.000000
vn 0.000000 -1.000000 0.000000
vn 0.000000 -1.000000 0.000000
vn 0.000000 -1.000000 0.000000
vn 0.000000 -1.000000 0.000000
vn 0.000000 0.000000 -1.000000
vn 0.000000 0.000000 -1.000000
vn 0.000000 0.000000 -1.000000
vn 0.000000 0.000000 -1.000000
vn 0.000000 0.000000 -1.000000
vn 0.000000 0.000000 -1.000000
vn -0.000000 0.000000 1.000000
vn -0.000000 0.000000 1.000000
vn -0.000000 0.000000 1.000000
vn -0.000000 0.000000 1.000000
vn -0.000000 0.000000 1.000000
vn -0.000000 0.000000 1.000000
vn 0.000000 0.000000 -1.000000
vn 0.000000 0.000000 -1.000000
vn 0.000000 0.000000 -1.000000
vn 0.000000 0.000000 -1.000000
vn 0.000000 0.000000 -1.000000
vn 0.000000 0.000000 -1.000000
vn 0.000000 1.000000 0.000000
vn 0.000000 1.000000 0.000000
vn 0.000000 1.000000 0.000000
vn 0.000000 1.000000 0.000000
vn 0.000000 1.000000 0.000000
vn 0.000000 1.000000 0.000000
vn -0.000000 0.000000 1.000000
vn -0.000000 0.000000 1.000000
vn -0.000000 0.000000 1.000000
vn -0.000000 0.000000 1.000000
vn -0.000000 0.000000 1.000000
vn -0.000000 0.000000 1.000000
f 19/29/43 20/30/44 21/32/45
f 21/32/46 20/30/47 22/31/48
f 23/33/49 24/34/50 17/36/51
f 17/36/52 24/34/53 18/35/54
f 18/37/55 24/38/56 20/40/57
f 20/40/58 24/38/59 22/39/60
f 23/41/61 17/42/62 21/44/63
f 21/44/64 17/42/65 19/43/66
f 27/45/67 25/46/68 28/48/69
f 28/48/70 25/46/71 26/47/72
f 29/49/73 27/50/74 30/52/75
f 30/52/76 27/50/77 28/51/78
f 31/53/79 29/54/80 32/56/81
f 32/56/82 29/54/83 30/55/84
v 42.493095 1.735681 0.847244
v 42.493095 1.735681 -0.847244
v 42.493095 2.569142 0.847244
v 42.493095 2.569142 -0.847244
v -42.736938 2.569142 0.847244
v -42.736938 2.569142 -0.847244
v -42.736938 1.735681 0.847244
v -42.736938 1.735681 -0.847244
v 42.654163 -2.141390 -1.076866
v -42.805416 -2.141472 -1.076866
v 42.654163 0.621980 -1.076866
v -42.805416 0.621980 -1.076866
v 42.654148 0.621980 1.076866
v -42.805431 0.621980 1.076866
v 42.654148 -2.141472 1.076866
v -42.805431 -2.141390 1.076866
vt 0.582583 0.001992
vt 0.688184 0.001992
vt 0.688184 0.995331
vt 0.582583 0.995331
vt 0.720118 0.001992
vt 0.825718 0.001992
vt 0.825718 0.995331
vt 0.720118 0.995331
vt 0.857652 0.995331
vt 0.857652 0.001992
vt 0.909593 0.001992
vt 0.909593 0.995331
vt 0.946067 0.995331
vt 0.946067 0.001992
vt 0.998008 0.001992
vt 0.998008 0.995331
vt 0.174211 0.998008
vt 0.001997 0.998008
vt 0.001992 0.001992
vt 0.174211 0.001992
vt 0.209276 0.001992
vt 0.343497 0.001992
vt 0.343497 0.998008
vt 0.209276 0.998008
vt 0.376282 0.001992
vt 0.548500 0.001992
vt 0.548500 0.998008
vt 0.376287 0.998008
vn 0.000000 1.000000 0.000000
vn 0.000000 1.000000 0.000000
vn 0.000000 1.000000 0.000000
vn 0.000000 1.000000 0.000000
vn 0.000000 1.000000 0.000000
vn 0.000000 1.000000 0.000000
vn 0.000000 -1.000000 0.000000
vn 0.000000 -1.000000 0.000000
vn 0.000000 -1.000000 0.000000
vn 0.000000 -1.000000 0.000000
vn 0.000000 -1.000000 0.000000
vn 0.000000 -1.000000 0.000000
vn 0.000000 0.000000 -1.000000
vn 0.000000 0.000000 -1.000000
vn 0.000000 0.000000 -1.000000
vn 0.000000 0.000000 -1.000000
vn 0.000000 0.000000 -1.000000
vn 0.000000 0.000000 -1.000000
vn -0.000000 0.000000 1.000000
vn -0.000000 0.000000 1.000000
vn -0.000000 0.000000 1.000000
vn -0.000000 0.000000 1.000000
vn -0.000000 0.000000 1.000000
vn -0.000000 0.000000 1.000000
vn 0.000000 0.000000 -1.000000
vn 0.000000 0.000000 -1.000000
vn 0.000000 0.000000 -1.000000
vn 0.000000 0.000000 -1.000000
vn 0.000000 0.000000 -1.000000
vn 0.000000 0.000000 -1.000000
vn 0.000000 1.000000 0.000000
vn 0.000000 1.000000 0.000000
vn 0.000000 1.000000 0.000000
vn 0.000000 1.000000 0.000000
vn 0.000000 1.000000 0.000000
vn 0.000000 1.000000 0.000000
vn -0.000000 0.000000 1.000000
vn -0.000000 0.000000 1.000000
vn -0.000000 0.000000 1.000000
vn -0.000000 0.000000 1.000000
vn -0.000000 0.000000 1.000000
vn -0.000000 0.000000 1.000000
f 35/57/85 36/58/86 37/60/87
f 37/60/88 36/58/89 38/59/90
f 39/61/91 40/62/92 33/64/93
f 33/64/94 40/62/95 34/63/96
f 34/65/97 40/66/98 36/68/99
f 36/68/100 40/66/101 38/67/102
f 39/69/103 33/70/104 37/72/105
f 37/72/106 33/70/107 35/71/108
f 43/73/109 41/74/110 44/76/111
f 44/76/112 41/74/113 42/75/114
f 45/77/115 43/78/116 46/80/117
f 46/80/118 43/78/119 44/79/120
f 47/81/121 45/82/122 48/84/123
f 48/84/124 45/82/125 46/83/126
