# This file uses centimeters as units for non-parametric coordinates.

mtllib wallbox.mtl
g default
v -2.286217 -2.286167 2.286217
v 2.286217 -2.286167 2.286217
v -2.286217 3.063905 2.286217
v 2.286217 3.063905 2.286217
v -2.286217 3.063905 -2.286217
v 2.286217 3.063905 -2.286217
v -2.286217 -2.286167 -2.286217
v 2.286217 -2.286167 -2.286217
v -1.747017 3.063905 1.604553
v 1.747017 3.063905 1.604553
v 1.747017 3.063905 -1.604557
v -1.747017 3.063905 -1.604557
v -1.747017 1.873413 1.604553
v 1.747017 1.873413 1.604553
v 1.747017 1.873413 -1.604557
v -1.747017 1.873413 -1.604557
vt 0.321815 0.001992
vt 0.634464 0.001992
vt 0.634464 0.395744
vt 0.321815 0.395744
vt 0.089890 0.998008
vt 0.089890 0.740856
vt 0.309319 0.740856
vt 0.309319 0.998008
vt 0.001992 0.001992
vt 0.314640 0.001992
vt 0.314640 0.395744
vt 0.001992 0.395744
vt 0.366576 0.400040
vt 0.679224 0.400040
vt 0.679224 0.736560
vt 0.366576 0.736560
vt 0.641443 0.001992
vt 0.954092 0.001992
vt 0.954092 0.395744
vt 0.641443 0.395744
vt 0.685360 0.400040
vt 0.998008 0.400040
vt 0.998008 0.793792
vt 0.685360 0.793792
vt 0.047792 0.400040
vt 0.360440 0.400040
vt 0.323572 0.450209
vt 0.084661 0.450209
vt 0.360440 0.736560
vt 0.323572 0.686391
vt 0.047792 0.736560
vt 0.084661 0.686391
vt 0.001992 0.998008
vt 0.001992 0.740856
vt 0.083394 0.740856
vt 0.083394 0.998008
vt 0.485073 0.740856
vt 0.485073 0.977038
vt 0.403671 0.977038
vt 0.403671 0.740856
vt 0.397370 0.740856
vt 0.397370 0.998008
vt 0.315968 0.998008
vt 0.315968 0.740856
vt 0.572776 0.740856
vt 0.572776 0.977038
vt 0.491374 0.977038
vt 0.491374 0.740856
vn 0.000000 0.000000 1.000000
vn 0.000000 0.000000 1.000000
vn 0.000000 0.000000 1.000000
vn 0.000000 0.000000 1.000000
vn 0.000000 1.000000 0.000000
vn 0.000000 1.000000 0.000000
vn 0.000000 1.000000 0.000000
vn 0.000000 1.000000 0.000000
vn 0.000000 0.000000 -1.000000
vn 0.000000 0.000000 -1.000000
vn 0.000000 0.000000 -1.000000
vn 0.000000 0.000000 -1.000000
vn 0.000000 -1.000000 0.000000
vn 0.000000 -1.000000 0.000000
vn 0.000000 -1.000000 0.000000
vn 0.000000 -1.000000 0.000000
vn 1.000000 0.000000 0.000000
vn 1.000000 0.000000 0.000000
vn 1.000000 0.000000 0.000000
vn 1.000000 0.000000 0.000000
vn -1.000000 0.000000 0.000000
vn -1.000000 0.000000 0.000000
vn -1.000000 0.000000 0.000000
vn -1.000000 0.000000 0.000000
vn 0.000000 1.000000 -0.000000
vn 0.000000 1.000000 -0.000000
vn 0.000000 1.000000 -0.000000
vn 0.000000 1.000000 0.000000
vn 0.000000 1.000000 0.000000
vn 0.000000 1.000000 0.000000
vn 0.000000 1.000000 0.000000
vn 0.000000 1.000000 0.000000
vn 0.000000 0.000000 -1.000000
vn 0.000000 0.000000 -1.000000
vn 0.000000 0.000000 -1.000000
vn 0.000000 0.000000 -1.000000
vn -1.000000 0.000000 0.000000
vn -1.000000 0.000000 0.000000
vn -1.000000 0.000000 0.000000
vn -1.000000 0.000000 0.000000
vn 0.000000 0.000000 1.000000
vn 0.000000 0.000000 1.000000
vn 0.000000 0.000000 1.000000
vn 0.000000 0.000000 1.000000
vn 1.000000 0.000000 0.000000
vn 1.000000 0.000000 0.000000
vn 1.000000 0.000000 0.000000
vn 1.000000 0.000000 0.000000
s 1
g sidebox_tri
usemtl initialShadingGroup
f 1/1/1 2/2/2 3/4/3
f 3/4/3 2/2/2 4/3/4
s 2
f 13/5/5 14/6/6 16/8/7
f 16/8/7 14/6/6 15/7/8
s 3
f 5/9/9 6/10/10 7/12/11
f 7/12/11 6/10/10 8/11/12
s 4
f 7/13/13 8/14/14 1/16/15
f 1/16/15 8/14/14 2/15/16
s 5
f 2/17/17 8/18/18 4/20/19
f 4/20/19 8/18/18 6/19/20
s 6
f 7/21/21 1/22/22 5/24/23
f 5/24/23 1/22/22 3/23/24
s 7
f 3/25/25 4/26/26 9/28/27
f 9/28/27 4/26/26 10/27/28
f 4/26/26 6/29/29 10/27/28
f 10/27/28 6/29/29 11/30/30
f 6/29/29 5/31/31 11/30/30
f 11/30/30 5/31/31 12/32/32
f 5/31/31 3/25/25 12/32/32
f 12/32/32 3/25/25 9/28/27
s 8
f 9/33/33 10/34/34 13/36/35
f 13/36/35 10/34/34 14/35/36
s 9
f 10/37/37 11/38/38 14/40/39
f 14/40/39 11/38/38 15/39/40
s 10
f 11/41/41 12/42/42 15/44/43
f 15/44/43 12/42/42 16/43/44
s 11
f 12/45/45 9/46/46 16/48/47
f 16/48/47 9/46/46 13/47/48
